<svg width="12" height="20" viewBox="0 0 12 20" fill="none" xmlns="http://www.w3.org/2000/svg">
<path fill-rule="evenodd" clip-rule="evenodd" d="M1.02918 13.0007C1.58108 12.9799 2.04536 13.4104 2.0662 13.9623C2.11316 15.2065 2.17914 16.1145 2.244 16.7656C2.30787 17.4068 2.69496 17.7926 3.23454 17.8586C3.87079 17.9363 4.76833 18 5.99998 18C7.23167 18 8.12922 17.9363 8.76546 17.8586C9.30477 17.7926 9.69205 17.4067 9.75594 16.7653C9.87633 15.5568 9.99998 13.4688 9.99998 10C9.99998 6.53118 9.87633 4.44321 9.75594 3.23468C9.69205 2.59333 9.30477 2.20736 8.76546 2.14144C8.12922 2.06366 7.23167 2 5.99998 2C4.76833 2 3.87079 2.06365 3.23454 2.14143C2.69496 2.20739 2.30787 2.59318 2.244 3.23437C2.17914 3.88545 2.11316 4.79354 2.0662 6.03772C2.04536 6.58961 1.58108 7.02012 1.02918 6.99929C0.477293 6.97845 0.0467855 6.51417 0.0676197 5.96228C0.115828 4.68524 0.184183 3.73543 0.253848 3.03611C0.400304 1.56595 1.42531 0.347702 2.99186 0.156206C3.72108 0.067066 4.7008 -2.02554e-07 5.99998 -2.59343e-07C7.2992 -3.16134e-07 8.27894 0.0670696 9.00815 0.156215C10.5748 0.347738 11.5997 1.56655 11.7461 3.03643C11.875 4.33068 12 6.48847 12 10C12 13.5115 11.875 15.6693 11.7461 16.9636C11.5997 18.4334 10.5748 19.6523 9.00815 19.8438C8.27894 19.9329 7.29921 20 5.99998 20C4.7008 20 3.72108 19.9329 2.99187 19.8438C1.42531 19.6523 0.400304 18.4341 0.253848 16.9639C0.184183 16.2646 0.115828 15.3148 0.0676197 14.0377C0.0467855 13.4858 0.477293 13.0215 1.02918 13.0007Z" fill="#A7B1BC"/>
</svg>
